<?xml version="1.0" encoding="UTF-8"?>
<svg id="Layer_1" data-name="Layer 1" xmlns="http://www.w3.org/2000/svg" viewBox="0 0 398.79 459.74">
  <defs>
    <style>
      .cls-1 {
        fill: #231f20;
      }

      .cls-2 {
        fill: #fff;
      }
    </style>
  </defs>
  <path class="cls-1" d="M398.79,343.87c0,.74-.39,1.43-1.04,1.8l-92.89,53.66-2.65,1.53h-.04l-2.99,1.72-98.56,56.89c-.65.37-1.44.37-2.08,0l-92.1-53.16v-.06l-6.44-3.71L1.43,345.67c-.65-.37-1.04-1.06-1.04-1.8v-138.89c-.24-.33-.39-.75-.39-1.21v-87.89c0-.74.4-1.43,1.05-1.8l95.54-55.18h.04l2.99-1.73,10.85-6.26L198.18.29c.64-.38,1.44-.38,2.08,0l92.09,53.16v.05l6.45,3.71,4.97,2.87c.68.39,1.1,1.11,1.1,1.9v102.25l92.46,53.9c.67.39,1.09,1.11,1.09,1.89v34.77l.38,89.09Z"/>
  <g>
    <path class="cls-2" d="M375.24,252.78v77.58c0,.66-.35,1.26-.92,1.59l-84.34,48.71h-.03l-2.64,1.52-87,50.22c-.57.33-1.27.33-1.84,0l-81.3-46.93v-.05l-5.69-3.28-87.02-50.2c-.57-.33-.92-.94-.92-1.59v-200.97c0-.66.35-1.26.92-1.59l87.02-50.2,5.69-3.32,81.3-46.93c.57-.33,1.27-.33,1.84,0l67.22,38.8c1.23.71,1.23,2.48,0,3.19l-73.79,42.58-5.49,3.21-88.13,50.85-4.77,2.74c-.57.33-.92.94-.92,1.59v119.16c0,.66.35,1.27.92,1.59l4.77,2.74,93.62,54.01,4.77,2.75c.57.33,1.27.33,1.84,0l4.75-2.75,90.95-52.49h.03l2.65-1.52,73.76-42.6c1.23-.71,2.76.18,2.76,1.59Z"/>
    <path class="cls-2" d="M281.62,183.43v92.89c0,.66-.35,1.26-.92,1.59l-80.36,46.39c-.57.33-1.27.33-1.84,0l-80.41-46.4c-.57-.33-.92-.94-.92-1.59v-92.87c0-.66.35-1.26.92-1.59l80.41-46.39c.57-.33,1.27-.33,1.84,0l80.36,46.39c.57.33.92.94.92,1.59Z"/>
    <path class="cls-2" d="M281.62,90.62v62.3c0,1.42-1.53,2.3-2.76,1.59l-53.97-31.15c-1.23-.71-1.23-2.48,0-3.19l53.97-31.15c1.23-.71,2.76.18,2.76,1.59Z"/>
    <path class="cls-2" d="M367.97,231.46l-64.26,37.11c-1.23.71-2.76-.18-2.76-1.59v-74.22c0-1.42,1.53-2.3,2.76-1.59l64.26,37.11c1.23.71,1.23,2.48,0,3.18Z"/>
  </g>
</svg>